# xmcd
#
# Track frame offsets: 
#        182
#        15927
#        30247
#        45400
#        57692
#        74877
#        87100
#        99007
#        112122
#        128872
#
# Disc length: 1880 seconds
#
# Revision: 2
# Processed by: cddbd v1.5.2PL0 Copyright (c) Steve Scherf et al.
# Submitted via: ExactAudioCopy v0.95b4
#
DISCID=7b07560a
DTITLE=George Jones - Walls Can Fall
DYEAR=1992
DGENRE=Country
TTITLE0=I Don't Need Your Rockin' Chair
TTITLE1=Walls Can Fall
TTITLE2=Don't Send Me No Angels
TTITLE3=Drive Me To Drink
TTITLE4=What Am I Doing There
TTITLE5=Wrong's What I Do Best
TTITLE6=Theres's The Door
TTITLE7=You Must Have Walked Across My Mind Again
TTITLE8=The Bottle Let Me Down
TTITLE9=Finally Friday
EXTD=
EXTT0=
EXTT1=
EXTT2=
EXTT3=
EXTT4=
EXTT5=
EXTT6=
EXTT7=
EXTT8=
EXTT9=
PLAYORDER=
